<svg width="1440" height="3993" viewBox="0 0 1440 3993" fill="none" xmlns="http://www.w3.org/2000/svg">
<g filter="url(#filter0_f_121_1317)">
<path d="M897.483 3373.48C1332.35 3243.43 1284.87 2071.68 1128.25 1362.45C1061.26 1058.95 990.265 912.616 861.232 801.956C505.499 496.92 -177.473 560.207 -336.018 839.91C-468.672 1073.83 -147.083 1305.11 -293.097 1650.5C-346.674 1777.15 -462.257 1893.91 -693.467 2127.37C-773.35 2208.23 -903.614 2354.81 -935.963 2564.02C-937.729 2576.69 -937.961 2589.52 -936.652 2602.25C-900.654 3031.73 56.908 3287.66 151.601 3313.07C415.403 3383.23 750.904 3417.24 897.483 3373.48Z" fill="#D8DEF5"/>
</g>
<defs>
<filter id="filter0_f_121_1317" x="-1537.49" y="0.0253906" width="3377.67" height="3992.97" filterUnits="userSpaceOnUse" color-interpolation-filters="sRGB">
<feFlood flood-opacity="0" result="BackgroundImageFix"/>
<feBlend mode="normal" in="SourceGraphic" in2="BackgroundImageFix" result="shape"/>
<feGaussianBlur stdDeviation="300" result="effect1_foregroundBlur_121_1317"/>
</filter>
</defs>
</svg>
