<svg width="1440" height="3618" viewBox="0 0 1440 3618" fill="none" xmlns="http://www.w3.org/2000/svg">
<g filter="url(#filter0_f_121_1312)">
<path d="M797.879 2849.44C696.212 2708.43 768.303 2473.89 942.063 2378.5C1166.71 2255 1476.11 2271.33 1475.53 2250.17C1474.92 2228.55 1134.02 2278.88 920.43 2172.78C548.88 1988.23 424.857 1261.91 963.696 862.686C1464.7 491.502 2352.79 540.877 2701.12 841.033C2795.85 922.67 2826.82 1002.31 2850.07 1752.11C2877.94 2650.23 2851.16 2806.89 2679.48 2903.59C2500.41 3004.48 2281.45 3022.11 1843.21 3017.28C1222 3010.38 911.389 3006.94 797.879 2849.44Z" fill="#D8DEF5"/>
</g>
<defs>
<filter id="filter0_f_121_1312" x="-1420" y="0" width="3459.57" height="3618" filterUnits="userSpaceOnUse" color-interpolation-filters="sRGB">
<feFlood flood-opacity="0" result="BackgroundImageFix"/>
<feBlend mode="normal" in="SourceGraphic" in2="BackgroundImageFix" result="shape"/>
<feGaussianBlur stdDeviation="300" result="effect1_foregroundBlur_121_1312"/>
</filter>
</defs>
</svg>
