<svg width="1440" height="3478" viewBox="0 0 1440 3478" fill="none" xmlns="http://www.w3.org/2000/svg">
<g filter="url(#filter0_f_121_1317)">
<path d="M2435.48 3373.48C2870.35 3243.43 2822.87 2071.68 2666.25 1362.45C2599.26 1058.95 2528.27 912.616 2399.23 801.956C2043.5 496.92 1360.53 560.207 1201.98 839.91C1069.33 1073.83 1390.92 1305.11 1244.9 1650.5C1191.33 1777.15 1075.74 1893.91 844.533 2127.37C764.651 2208.23 634.386 2354.81 602.038 2564.02C600.271 2576.69 600.04 2589.52 601.349 2602.25C637.346 3031.73 1594.91 3287.66 1689.6 3313.07C1953.4 3383.23 2288.9 3417.24 2435.48 3373.48Z" fill="#D8DEF5"/>
</g>
<defs>
<filter id="filter0_f_121_1318" x="-267" y="0" width="3457.57" height="3478" filterUnits="userSpaceOnUse" color-interpolation-filters="sRGB">
<feFlood flood-opacity="0" result="BackgroundImageFix"/>
<feBlend mode="normal" in="SourceGraphic" in2="BackgroundImageFix" result="shape"/>
<feGaussianBlur stdDeviation="300" result="effect1_foregroundBlur_121_1318"/>
</filter>
</defs>
</svg>
