<svg width="1440" height="3618" viewBox="0 0 1440 3618" fill="none" xmlns="http://www.w3.org/2000/svg">
<g filter="url(#filter0_f_121_1312)">
<path d="M-622.121 2849.44C-723.788 2708.43 -651.697 2473.89 -477.937 2378.5C-253.286 2255 56.1075 2271.33 55.5298 2250.17C54.9233 2228.55 -285.982 2278.88 -499.57 2172.78C-871.12 1988.23 -995.143 1261.91 -456.304 862.686C44.6987 491.502 932.79 540.877 1281.12 841.033C1375.85 922.67 1406.82 1002.31 1430.07 1752.11C1457.94 2650.23 1431.16 2806.89 1259.48 2903.59C1080.41 3004.48 861.449 3022.11 423.209 3017.28C-198.004 3010.38 -508.611 3006.94 -622.121 2849.44Z" fill="#D8DEF5"/>
</g>
<defs>
<filter id="filter0_f_121_1312" x="-1420" y="0" width="3459.57" height="3618" filterUnits="userSpaceOnUse" color-interpolation-filters="sRGB">
<feFlood flood-opacity="0" result="BackgroundImageFix"/>
<feBlend mode="normal" in="SourceGraphic" in2="BackgroundImageFix" result="shape"/>
<feGaussianBlur stdDeviation="300" result="effect1_foregroundBlur_121_1312"/>
</filter>
</defs>
</svg>
