<svg width="1440" height="3860" viewBox="0 0 1440 3860" fill="none" xmlns="http://www.w3.org/2000/svg">
<g filter="url(#filter0_f_121_1315)">
<path d="M28.4245 2225.37C61.0623 2038.99 188.087 1846.5 388.636 1747.51C725.683 1581.16 1056.75 1784.37 1076.3 1796.86C829.984 1549.98 749.137 1218.3 865.351 966.616C970.04 739.842 1197.76 658.359 1245.47 641.01C1659.58 492.637 2071.37 787.366 2213.85 889.341C2313.96 960.988 2927.5 1400.15 2805.65 1893.14C2756.16 2093.38 2593.67 2269.14 2389.83 2347.98C2039.48 2483.35 1731.85 2267.79 1708.97 2251.14C1992.29 2442.7 2126.68 2764.82 2053.19 3048.6C1967.61 3378.49 1641.54 3502.8 1618.59 3511.16C1194.75 3665.04 769.214 3318.25 574.792 3159.9C385.396 3005.62 -46.3919 2653.75 28.4245 2225.37Z" fill="#D8DEF5"/>
</g>
<defs>
<filter id="filter0_f_121_1315" x="-580.191" y="0.0429688" width="4001.78" height="4149.59" filterUnits="userSpaceOnUse" color-interpolation-filters="sRGB">
<feFlood flood-opacity="0" result="BackgroundImageFix"/>
<feBlend mode="normal" in="SourceGraphic" in2="BackgroundImageFix" result="shape"/>
<feGaussianBlur stdDeviation="300" result="effect1_foregroundBlur_121_1315"/>
</filter>
</defs>
</svg>
