<svg width="1440" height="3860" viewBox="0 0 1440 3860" fill="none" xmlns="http://www.w3.org/2000/svg">
<g filter="url(#filter0_f_121_1315)">
<path d="M609.424 2225.37C642.061 2038.99 769.086 1846.5 969.635 1747.51C1306.68 1581.16 1637.75 1784.37 1657.29 1796.86C1410.98 1549.98 1330.14 1218.3 1446.35 966.616C1551.04 739.842 1778.76 658.359 1826.47 641.01C2240.58 492.637 2652.37 787.366 2794.84 889.341C2894.96 960.988 3508.5 1400.15 3386.64 1893.14C3337.16 2093.38 3174.67 2269.14 2970.83 2347.98C2620.48 2483.35 2312.85 2267.79 2289.97 2251.14C2573.29 2442.7 2707.68 2764.82 2634.19 3048.6C2548.61 3378.49 2222.54 3502.8 2199.59 3511.16C1775.74 3665.04 1350.21 3318.25 1155.79 3159.9C966.395 3005.62 534.607 2653.75 609.424 2225.37Z" fill="#D8DEF5"/>
</g>
<defs>
<filter id="filter0_f_121_1315" x="-580.191" y="0.0429688" width="4001.78" height="4149.59" filterUnits="userSpaceOnUse" color-interpolation-filters="sRGB">
<feFlood flood-opacity="0" result="BackgroundImageFix"/>
<feBlend mode="normal" in="SourceGraphic" in2="BackgroundImageFix" result="shape"/>
<feGaussianBlur stdDeviation="300" result="effect1_foregroundBlur_121_1315"/>
</filter>
</defs>
</svg>
